# xmcd CD database file
#
# Track frame offsets:
#	150
#	66206
#	91187
#	133406
#	180179
#	210877
#	263173
#	305094
#
# Disc length: 4669 seconds
#
# Revision: 1
# Processed by: cddbd v1.5.2PL0 Copyright (c) Steve Scherf et al.
# Submitted via: CDex 1.51
#
DISCID=69123b08
DTITLE=Various Artist - Spiritual Jazz 8: Japan
DYEAR=2018
DGENRE=Jazz
TTITLE0=Kumo No Ito (Mitsuaki Kanno)
TTITLE1=My favorite Things (Tadao Hayashi)
TTITLE2=Positive and Negative (Minoru Muraoka)
TTITLE3=East Plants (Takeo Moriyama)
TTITLE4=Under Construction (Koichi Matsukaze)
TTITLE5=Ragam Sinthubairavi (Sadao Watanebe and Charlie Mariano)
TTITLE6=Footprint (Shungo Sawada)
TTITLE7=Sun in the East (New Direction for fhe Arts)
EXTD=YEAR: 2018
EXTT0=
EXTT1=
EXTT2=
EXTT3=
EXTT4=
EXTT5=
EXTT6=
EXTT7=
PLAYORDER=
